Coordinates
version=1
nRows=11
nColumns=40
inDegrees=yes

Units are S.I. units (second, meters, Newtons, ...)
If the header above contains a line with 'inDegrees', this indicates whether rotational values are in degrees (yes) or radians (no).

endheader
time	pelvis_tilt	pelvis_list	pelvis_rotation	pelvis_tx	pelvis_ty	pelvis_tz	hip_flexion_r	hip_adduction_r	hip_rotation_r	knee_angle_r	knee_angle_r_beta	ankle_angle_r	subtalar_angle_r	mtp_angle_r	hip_flexion_l	hip_adduction_l	hip_rotation_l	knee_angle_l	knee_angle_l_beta	ankle_angle_l	subtalar_angle_l	mtp_angle_l	lumbar_extension	lumbar_bending	lumbar_rotation	arm_flex_r	arm_add_r	arm_rot_r	elbow_flex_r	pro_sup_r	wrist_flex_r	wrist_dev_r	arm_flex_l	arm_add_l	arm_rot_l	elbow_flex_l	pro_sup_l	wrist_flex_l	wrist_dev_l
      6.43500000	     -7.98010001	      4.20992490	     -5.13073811	     -0.23288987	      1.22434422	     -0.92209516	     12.55486527	    -11.96910842	    -28.23164318	      2.14621440	      0.03745851	    -38.77537824	      0.00000000	      0.00000000	     12.95863371	     -4.28336199	    -30.95662104	      7.02074694	      0.12253515	    -38.27476599	      0.00000000	      0.00000000	    -14.03271762	     -3.64029762	     -3.94530122	    -33.81579501	    -53.52018578	     28.88737913	    109.05949596	     87.78095711	      0.00000000	      0.00000000	    -43.70519472	    -47.29938604	     18.96546499	    107.02403900	     88.07153329	      0.00000000	      0.00000000
      6.44000000	     -8.39943846	      4.13199080	     -5.17349662	     -0.23402559	      1.23373805	     -0.92247978	     13.40708995	    -11.86166768	    -27.69328526	      2.93593844	      0.05124179	    -38.86646612	      0.00000000	      0.00000000	     13.80420940	     -4.51273472	    -30.42790460	      7.70398890	      0.13445997	    -38.33358610	      0.00000000	      0.00000000	    -13.53983035	     -3.54646175	     -3.84561957	    -33.07763895	    -53.72268865	     29.73005052	    108.78964365	     87.78078358	      0.00000000	      0.00000000	    -42.64580882	    -47.36441333	     20.05660274	    106.35246743	     88.10081008	      0.00000000	      0.00000000
      6.44500000	     -8.25897548	      4.14810708	     -5.31522358	     -0.23436236	      1.24340028	     -0.92256302	     13.52212895	    -11.82546790	    -27.26286190	      3.38521695	      0.05908318	    -39.12594218	      0.00000000	      0.00000000	     13.91935468	     -4.57381025	    -29.82412771	      8.15133942	      0.14226771	    -38.74769566	      0.00000000	      0.00000000	    -13.69257634	     -3.63790797	     -3.75629166	    -32.87635266	    -53.74025139	     29.89682895	    108.62243860	     87.77979734	      0.00000000	      0.00000000	    -42.27581533	    -47.30146167	     20.20717651	    106.16287344	     88.07908632	      0.00000000	      0.00000000
      6.45000000	     -8.54687185	      4.11960739	     -5.25052920	     -0.23498130	      1.25216009	     -0.92289188	     14.13691471	    -11.78898558	    -26.30303522	      4.10978063	      0.07172920	    -39.07947235	      0.00000000	      0.00000000	     14.47883643	     -4.58506002	    -28.00954441	      8.44173740	      0.14733611	    -38.78966116	      0.00000000	      0.00000000	    -13.32979367	     -3.60316994	     -3.84536831	    -32.03196509	    -53.85602253	     31.07307420	    108.16779667	     87.74318679	      0.00000000	      0.00000000	    -41.37861594	    -47.46781543	     21.52260814	    105.51168075	     88.03528824	      0.00000000	      0.00000000
      6.45500000	     -8.59511247	      4.07310810	     -5.30099506	     -0.23594713	      1.26089588	     -0.92297697	     14.48672548	    -11.67771882	    -25.25457284	      4.57029786	      0.07976675	    -39.08445601	      0.00000000	      0.00000000	     14.78513704	     -4.63711181	    -26.39785431	      8.70547292	      0.15193917	    -38.88472963	      0.00000000	      0.00000000	    -13.28230699	     -3.59472111	     -3.85953839	    -31.50934670	    -54.03037183	     31.58181844	    107.95690594	     87.73739222	      0.00000000	      0.00000000	    -40.78574688	    -47.63661732	     22.21355826	    105.02600529	     88.03040517	      0.00000000	      0.00000000
      6.46000000	     -8.37344388	      4.05068330	     -5.34382386	     -0.23638791	      1.26965288	     -0.92300673	     14.51783989	    -11.64563585	    -24.64608458	      4.95807269	      0.08653469	    -39.19989155	      0.00000000	      0.00000000	     14.82309869	     -4.68137658	    -25.45466290	      9.06812549	      0.15826865	    -39.02296599	      0.00000000	      0.00000000	    -13.57555329	     -3.66106168	     -3.96982748	    -31.24600756	    -54.00673239	     31.74307716	    107.69022073	     87.73061105	      0.00000000	      0.00000000	    -40.59385417	    -47.70827088	     22.57032641	    104.62358782	     88.03681497	      0.00000000	      0.00000000
      6.46500000	     -8.48149030	      3.92243226	     -5.22362284	     -0.23707897	      1.27778233	     -0.92334152	     14.79421217	    -11.47556329	    -23.66056286	      5.15511515	      0.08997373	    -39.13599612	      0.00000000	      0.00000000	     15.06302383	     -4.68450531	    -23.23846345	      8.94225464	      0.15607179	    -38.89842571	      0.00000000	      0.00000000	    -13.44750943	     -3.52253241	     -4.14363316	    -30.47361683	    -54.23263904	     32.79213620	    107.39233566	     87.74826413	      0.00000000	      0.00000000	    -39.70942423	    -47.96500340	     23.83689885	    104.00878211	     88.04535727	      0.00000000	      0.00000000
      6.47000000	     -8.29460589	      3.87838661	     -5.10920239	     -0.23731868	      1.28593802	     -0.92357371	     14.74654982	    -11.43975829	    -23.16642728	      5.27731609	      0.09210654	    -39.16204765	      0.00000000	      0.00000000	     15.02446233	     -4.66856014	    -22.05738635	      8.99954244	      0.15707165	    -38.90870127	      0.00000000	      0.00000000	    -13.59158781	     -3.50122608	     -4.37871496	    -29.83283471	    -54.35036765	     33.53407202	    107.07940715	     87.72994354	      0.00000000	      0.00000000	    -39.04044396	    -48.23912965	     24.89322877	    103.47752679	     88.03331657	      0.00000000	      0.00000000
      6.47500000	     -8.20589940	      3.83253542	     -4.92396211	     -0.23724939	      1.29371323	     -0.92389943	     14.70943785	    -11.39444072	    -22.64216935	      5.20465106	      0.09083830	    -39.15215217	      0.00000000	      0.00000000	     15.08829238	     -4.65911405	    -21.07031696	      9.02979264	      0.15759961	    -38.84624973	      0.00000000	      0.00000000	    -13.63400429	     -3.46879184	     -4.69442273	    -29.35025332	    -54.36792472	     34.09805941	    106.78362580	     87.71551724	      0.00000000	      0.00000000	    -38.56878805	    -48.44333071	     25.70835981	    102.93833246	     88.03071907	      0.00000000	      0.00000000
      6.48000000	     -8.01926559	      3.82705982	     -4.83036194	     -0.23716287	      1.30139094	     -0.92418470	     14.56430402	    -11.38598629	    -22.24092794	      4.97352733	      0.08680443	    -39.10053700	      0.00000000	      0.00000000	     15.02106701	     -4.65153547	    -20.50557649	      9.07270858	      0.15834864	    -38.80903519	      0.00000000	      0.00000000	    -13.79688597	     -3.48655379	     -4.97405298	    -28.90044463	    -54.40425641	     34.55319524	    106.49904115	     87.69701585	      0.00000000	      0.00000000	    -38.13605365	    -48.57087983	     26.45557124	    102.38361726	     88.02241769	      0.00000000	      0.00000000
      6.48500000	     -8.02157822	      3.74245081	     -4.61714369	     -0.23693455	      1.30851611	     -0.92441037	     14.50809875	    -11.26693498	    -21.90726396	      4.59516118	      0.08020069	    -39.08500535	      0.00000000	      0.00000000	     15.10534036	     -4.71303244	    -20.08812701	      8.94972486	      0.15620217	    -38.77623369	      0.00000000	      0.00000000	    -13.65307493	     -3.38246133	     -5.29688001	    -28.37868789	    -54.44831782	     35.21804477	    106.23682938	     87.69038088	      0.00000000	      0.00000000	    -37.52803320	    -48.89864675	     27.48618538	    101.90610878	     87.99701877	      0.00000000	      0.00000000
